<svg id="Layer_1" data-name="Layer 1" xmlns="http://www.w3.org/2000/svg" xmlns:xlink="http://www.w3.org/1999/xlink" viewBox="0 0 803.76 356.47"><defs><style>.cls-1{fill:#a5c2e6;}.cls-2{fill:#fcb12c;}.cls-3{fill:#ee9521;}.cls-4{fill:#9a7344;}.cls-5{fill:#9c463a;}.cls-6{fill:#f15b3f;}.cls-7{fill:#5e3729;}.cls-8{fill:#818597;}.cls-9{fill:#f79e85;}.cls-10{fill:#b05a45;}.cls-11{fill:#f2f3f2;}.cls-12{fill:#d1836b;}.cls-13{fill:#414e80;}.cls-14{fill:#616a97;}.cls-15{fill:#fff;}.cls-16{fill:#30323d;}.cls-17{fill:#dc7878;}.cls-18{fill:#64bd61;}.cls-19{fill:#25783c;}.cls-20{fill:#2a3047;}.cls-21{fill:#e58a76;}.cls-22{fill:#dbbfb2;}.cls-23{fill:#4a8cca;}.cls-24{fill:#b95029;}.cls-25{fill:#305878;}</style></defs><image width="4520" height="1500" transform="translate(707.93 7.25) scale(0.02)" xlink:href="../../../../../1%20Important/Logo/TalktoAngel_Registered%20_.png"/><path id="_13" data-name="13" class="cls-1" d="M127,338.32s-44-26.15-13.11-102.31,26.64-100.95,35.94-151.12S189.37.19,232.81,32.6c48.12,35.89,81.25,45.37,119,35.89,36.26-9.1,76.11-50.81,123.24-50.81,47.7,0,51.36,61.88,91.58,70.54,48.28,10.4,59.75-51,103.24-28.18,44.83,23.54,37.63,188.29-.42,278Z"/><g id="_11" data-name="11"><path class="cls-2" d="M198.72,338a3.17,3.17,0,0,1-3.17-3.17V315.34a3.17,3.17,0,0,1,6.34,0v19.52A3.17,3.17,0,0,1,198.72,338Z"/><path class="cls-2" d="M461.11,338a3.17,3.17,0,0,1-3.17-3.17V315.34a3.17,3.17,0,0,1,6.34,0v19.52A3.17,3.17,0,0,1,461.11,338Z"/><path class="cls-3" d="M296.45,149.39h66.93A104.07,104.07,0,0,1,467.45,253.46v0a0,0,0,0,1,0,0H192.38a0,0,0,0,1,0,0v0A104.07,104.07,0,0,1,296.45,149.39Z"/><path class="cls-3" d="M480.54,213.73h0a19.43,19.43,0,0,0-19.43,19.43v20.3H198.72v-20.3a19.43,19.43,0,0,0-19.43-19.43h0a19.43,19.43,0,0,0-19.43,19.43v45.49a43,43,0,0,0,43,43H456.94a43,43,0,0,0,43-43V233.16A19.43,19.43,0,0,0,480.54,213.73Z"/><rect class="cls-2" x="198.72" y="247.74" width="262.39" height="25.4"/><path class="cls-4" d="M461.11,273.59H198.72a.45.45,0,1,1,0-.89H461.11a.45.45,0,0,1,0,.89Z"/><path class="cls-4" d="M201.89,322.13a29,29,0,0,1-6.32-.61.45.45,0,0,1,.22-.87,27.68,27.68,0,0,0,6.1.59.45.45,0,0,1,0,.89Z"/><path class="cls-4" d="M458.36,322.14h-.45a.45.45,0,0,1-.43-.46.44.44,0,0,1,.47-.43,29.46,29.46,0,0,0,6.34-.63.45.45,0,1,1,.19.87A30.21,30.21,0,0,1,458.36,322.14Z"/><path class="cls-4" d="M198.72,248.19a.45.45,0,0,1-.45-.45V233.16a18.59,18.59,0,0,0-6.17-14,.45.45,0,0,1,.55-.7,19.12,19.12,0,0,1,6.52,14.71v14.58A.45.45,0,0,1,198.72,248.19Z"/><path class="cls-4" d="M461.11,248.19a.45.45,0,0,1-.45-.45V233.16a19.12,19.12,0,0,1,6.52-14.71.44.44,0,1,1,.54.7h0a18.62,18.62,0,0,0-6.17,14v14.58A.45.45,0,0,1,461.11,248.19Z"/></g><g id="_10" data-name="10"><path class="cls-5" d="M605.66,337.59a3.16,3.16,0,0,0,3.16-3.16V262.62a3.16,3.16,0,0,0-6.32,0v71.81A3.16,3.16,0,0,0,605.66,337.59Z"/><path class="cls-6" d="M617.85,170.5h0a26.38,26.38,0,0,0-26.38,26.38v36.64a22.69,22.69,0,0,1-22.68,22.68h0a3.21,3.21,0,0,0-3.21,3.21h0a3.21,3.21,0,0,0,3.21,3.21h49.27a26.17,26.17,0,0,0,26.17-26.17V196.88A26.38,26.38,0,0,0,617.85,170.5Z"/><path class="cls-5" d="M586.16,338.31h39a3.16,3.16,0,1,0,0-6.31h-39a3.16,3.16,0,1,0,0,6.31Z"/></g><g id="_9" data-name="9"><path class="cls-7" d="M360,114.33s-11-4.73-18.82,3.14-3.67,17-4.88,22.85-8.68,7.1-10.37,15.33,5.86,11.53,12.53,9.75c0,0-1.91,11.44,8.94,11.6s29.2-3.22,35-18.73S387.77,118.51,360,114.33Z"/><path class="cls-8" d="M430,175.12s8.18,5.15,6.85,19C436.85,194.12,423.43,188.32,430,175.12Z"/><path class="cls-9" d="M398.67,205.11a5.46,5.46,0,0,1-6.74-5.14s-.18-4.86,10.67-8.43l34.08-15.37a5.42,5.42,0,1,1,4.45,9.88C440.24,186.37,399.56,205,398.67,205.11Z"/><path class="cls-9" d="M438,183.07c1.38-3.73,3.05-7.59,4.77-9.49.77-.86,3.07-2.16,1.88-3.64-1.76-1.88-8.66,6.25-9.6,7.89C431.8,181.87,435.07,187.25,438,183.07Z"/><path class="cls-9" d="M437.73,176c3.84-1,7.83-2.36,9.88-3.9.93-.69,2.43-2.87,3.79-1.55,1.71,1.92-7,8.06-8.72,8.86C438.37,182.19,433.31,178.45,437.73,176Z"/><path class="cls-9" d="M442.59,176.4a17.4,17.4,0,0,0,7-2.43c1.23-.46,2.66-2.71,3.92-1.27,1.15,1.62-3.44,4.5-4.59,5.44a18.94,18.94,0,0,1-5.69,2.69A2.24,2.24,0,0,1,442.59,176.4Z"/><path class="cls-9" d="M441.63,179.63a17.21,17.21,0,0,0,10.61-4,1.19,1.19,0,0,1,1.64,1.7,19.28,19.28,0,0,1-3.82,3.45,21.37,21.37,0,0,1-8.22,3.35C438.64,184.52,438.39,179.54,441.63,179.63Z"/><path class="cls-9" d="M436.39,183.14a26,26,0,0,0,12-1.59,14.48,14.48,0,0,0,3.44-2,1.19,1.19,0,0,1,1.7.18c1.51,2.34-6.36,5.78-8.13,6.31a35.9,35.9,0,0,1-9.94,1.52C432.22,187.46,433.23,182.61,436.39,183.14Z"/><path class="cls-10" d="M443.64,177.37a.17.17,0,0,1-.21-.12.18.18,0,0,1,.12-.23,21.07,21.07,0,0,0,6.32-3.37.19.19,0,0,1,.26,0,.18.18,0,0,1,0,.25,21.63,21.63,0,0,1-6.45,3.44Z"/><path class="cls-10" d="M445.1,179.91a.16.16,0,0,1-.21-.11.18.18,0,0,1,.11-.23,24.8,24.8,0,0,0,6.65-3.7.18.18,0,0,1,.25,0,.18.18,0,0,1,0,.26,25.21,25.21,0,0,1-6.76,3.76Z"/><path class="cls-10" d="M444.79,183l-.11,0a.18.18,0,0,1-.21-.14.17.17,0,0,1,.13-.21h0a32.38,32.38,0,0,0,6.09-2.56.17.17,0,0,1,.24.07.17.17,0,0,1-.07.24A33,33,0,0,1,444.79,183Z"/><path class="cls-11" d="M368.72,158s-7.07,15,7.91,32.18,21.28,17.78,30.77,15.91,29.45-11.95,29.45-11.95a22.66,22.66,0,0,1-6.85-19l-28.67,10S384.87,158.79,368.72,158Z"/><rect class="cls-9" x="354.89" y="142.26" width="13.25" height="20.78" transform="matrix(0.99, -0.1, 0.1, 0.99, -13.59, 37.37)"/><path class="cls-12" d="M359.05,154.81a18.7,18.7,0,0,0,9.35,0l-.69-6.73Z"/><path class="cls-9" d="M367.86,238.18c12.18-1.24,29.94-6.41,23.5-22.64a86.32,86.32,0,0,1-6.62-35.27c.2-9.16-13.86-25.84-22.33-22.85l-.8.08c-11.87,1.4-16.5,13.85-14,25.83a67,67,0,0,1-1.78,34.84C339.1,240.55,367.86,238.18,367.86,238.18Z"/><path class="cls-9" d="M393.18,334.84a9.33,9.33,0,0,1-1.81-.18A9,9,0,0,1,384.31,324l15.14-74.64-34.56,1.25a9,9,0,0,1-.65-18.06l46-1.67a9,9,0,0,1,9.18,10.83L402,327.6A9,9,0,0,1,393.18,334.84Z"/><path class="cls-13" d="M383.63,335.15a3.44,3.44,0,0,0,3.26,2.59l25.58.07a3,3,0,0,0,2.73-1.71,3.19,3.19,0,0,0,.3-1,3.12,3.12,0,0,0-1-2.88L411,329.06l-3.79-3.46A62.22,62.22,0,0,1,384,324.19l-.29,5.59-.22,4.28A3.29,3.29,0,0,0,383.63,335.15Z"/><path class="cls-13" d="M409.3,327.53s-5.35-4.91-6.94-6.09-5.59.29-5.15,1.92,3.19,4.22,3.19,4.22Z"/><path class="cls-14" d="M415.67,335a.17.17,0,0,0-.14-.07H383.58a.18.18,0,0,0-.13.08.18.18,0,0,0,0,.1v.09a3.68,3.68,0,0,0,2.29,2.54,3.63,3.63,0,0,0,1.19.21l25.58.07h0a3.35,3.35,0,0,0,1.35-.28,3.42,3.42,0,0,0,1.89-2.57A.24.24,0,0,0,415.67,335Z"/><path class="cls-15" d="M405.28,330.64a.22.22,0,0,0,.19-.12,5.76,5.76,0,0,1,3.86-2.77.22.22,0,1,0-.07-.43,6.06,6.06,0,0,0-4.18,3,.21.21,0,0,0,.1.29A.17.17,0,0,0,405.28,330.64Z"/><path class="cls-15" d="M403.41,328.9a.21.21,0,0,0,.19-.12,5.77,5.77,0,0,1,3.86-2.76.24.24,0,0,0,.19-.26.23.23,0,0,0-.26-.18,6.13,6.13,0,0,0-4.18,3,.23.23,0,0,0,.1.3A.16.16,0,0,0,403.41,328.9Z"/><path class="cls-15" d="M401.62,327.29a.22.22,0,0,0,.2-.12,5.73,5.73,0,0,1,3.86-2.76.23.23,0,0,0,.18-.26.22.22,0,0,0-.25-.18,6.1,6.1,0,0,0-4.19,3,.23.23,0,0,0,.1.3Z"/><path class="cls-14" d="M411,329.06s5.33,3.08,4.75,6.12l-9.83-.09A7.75,7.75,0,0,1,411,329.06Z"/><path class="cls-14" d="M383.73,329.78s5.62.36,6.72,5.15l-7,.28A35.23,35.23,0,0,1,383.73,329.78Z"/><path class="cls-6" d="M381.65,218.5s32.06,13.67,39.62,28.27c6.93,13.38-11.52,67.72-11.52,67.72s-12.9,5.26-29.24,0l7.93-53.78s-17.52-1.76-32.5-7.82c-20.72-8.4-12.71-32.25-12.71-32.25a61.35,61.35,0,0,0,24.21,1.28C371.41,221.36,381.65,218.5,381.65,218.5Z"/><path class="cls-9" d="M429.35,333.25a9,9,0,0,1-9-8.71l-2.56-71.86-38.88-11.85a9,9,0,0,1,5.26-17.29l45.06,13.74a9,9,0,0,1,6.39,8.32l2.79,78.29a9,9,0,0,1-8.71,9.36Z"/><path class="cls-13" d="M419.78,335.15a3.53,3.53,0,0,0,.54,1.16,3.38,3.38,0,0,0,2.72,1.43l25.58.07a3,3,0,0,0,2.73-1.71,3.21,3.21,0,0,0,.31-1,3.17,3.17,0,0,0-1-2.88l-3.53-3.21-3.8-3.46a62.22,62.22,0,0,1-23.16-1.41l-.28,5.59-.22,4.28A3.58,3.58,0,0,0,419.78,335.15Z"/><path class="cls-13" d="M445.45,327.53s-5.35-4.91-6.94-6.09-5.59.29-5.15,1.92,3.19,4.22,3.19,4.22Z"/><path class="cls-14" d="M451.83,335a.21.21,0,0,0-.14-.07h-32a.16.16,0,0,0-.12.08.19.19,0,0,0-.05.1.31.31,0,0,0,0,.09A3.59,3.59,0,0,0,423,338l25.58.07h0a3.34,3.34,0,0,0,1.34-.28,3.46,3.46,0,0,0,1.9-2.57A.24.24,0,0,0,451.83,335Z"/><path class="cls-15" d="M441.43,330.64a.24.24,0,0,0,.2-.12,5.72,5.72,0,0,1,3.86-2.77.22.22,0,0,0,.18-.25.22.22,0,0,0-.25-.18,6.08,6.08,0,0,0-4.19,3,.22.22,0,0,0,.1.29A.19.19,0,0,0,441.43,330.64Z"/><path class="cls-15" d="M439.56,328.9a.22.22,0,0,0,.2-.12,5.75,5.75,0,0,1,3.86-2.76.23.23,0,0,0,.18-.26.22.22,0,0,0-.25-.18,6.13,6.13,0,0,0-4.18,3,.22.22,0,0,0,.09.3A.18.18,0,0,0,439.56,328.9Z"/><path class="cls-15" d="M437.77,327.29a.22.22,0,0,0,.2-.12,5.75,5.75,0,0,1,3.86-2.76.23.23,0,0,0,.18-.26.22.22,0,0,0-.25-.18,6.09,6.09,0,0,0-4.18,3,.23.23,0,0,0,.09.3Z"/><path class="cls-14" d="M447.13,329.06s5.33,3.08,4.75,6.12l-9.83-.09A7.72,7.72,0,0,1,447.13,329.06Z"/><path class="cls-14" d="M419.89,329.78s5.61.36,6.72,5.15l-7,.28A35.23,35.23,0,0,1,419.89,329.78Z"/><path class="cls-6" d="M385.23,216.84s37.36,5.31,50.09,23.09c9.68,13.5,10.16,74.56,10.16,74.56s-12.9,5.26-29.23,0l-4.14-53.57s-22-1-37.26-6.22c-24.7-8.39-28.85-34.06-28.85-34.06Z"/><path class="cls-11" d="M368.72,158s5.88,2.49,13.08,10.34c2.18,2.38,7.88,8.86,8.3,13.06.47,4.55-3.92,7.62-3.08,15.87s8.15,15.79,5.13,21.25c-1.77,3.21-33.64,10.4-47.34,3.42-7.63-3.88,5.54-17.7-.51-39.73-2.63-9.57,6.14-20.06,11.23-22.87,0,0,7.47,5,12,4.3S368.72,158,368.72,158Z"/><path class="cls-8" d="M371.05,221.69A22.53,22.53,0,0,1,356.84,236S358.1,223.4,371.05,221.69Z"/><path class="cls-9" d="M331.83,208.3c-2.21-2.54-3.44-8.78-.38-10.21,0,0,4.3-2.25,12.19,6,.08.09,28.51,24.18,28.51,24.18a5.42,5.42,0,0,1-7,8.27C364.47,235.87,332.34,209,331.83,208.3Z"/><path class="cls-5" d="M398.1,310.37a59.36,59.36,0,0,1-16.64-2.48.17.17,0,0,1-.12-.22.17.17,0,0,1,.22-.12c18.31,5.33,30.08.36,30.2.3a.19.19,0,0,1,.24.1.18.18,0,0,1-.09.24C411.83,308.22,406.74,310.37,398.1,310.37Z"/><path class="cls-5" d="M414.94,297.77h0a.18.18,0,0,1-.14-.21c.06-.27,5.85-26.72,7.88-38.59,1-5.6-1-11.65-5.59-17.48a51.73,51.73,0,0,0-17.84-13.76.18.18,0,0,1,.16-.33,52.25,52.25,0,0,1,18,13.86C422,247.17,424,253.31,423,259c-2,11.88-7.83,38.34-7.88,38.6A.19.19,0,0,1,414.94,297.77Z"/><path class="cls-5" d="M430.4,310.64a46.18,46.18,0,0,1-14.7-2.18.18.18,0,0,1-.1-.24.17.17,0,0,1,.23-.1c.13.05,13.14,4.83,29.6,0a.18.18,0,0,1,.23.12.19.19,0,0,1-.13.22A53.68,53.68,0,0,1,430.4,310.64Z"/><path class="cls-9" d="M366.47,232.4c4-.35,8.17-.5,10.62.23,1.11.33,3.28,1.85,4.09.14.95-2.4-9.36-5.13-11.25-5.28C364.91,226.32,361.46,231.59,366.47,232.4Z"/><path class="cls-9" d="M372.81,229.13c2.59,3,5.49,6.06,7.76,7.26,1,.53,3.63,1,3,2.75-1,2.37-10.29-2.86-11.75-4.07C367.44,232.39,368.65,226.22,372.81,229.13Z"/><path class="cls-9" d="M374.48,233.72A17.39,17.39,0,0,0,379.7,239c.95.91,3.59,1.24,2.83,3-1,1.73-5.54-1.18-6.88-1.81a19.5,19.5,0,0,1-4.88-4A2.24,2.24,0,0,1,374.48,233.72Z"/><path class="cls-9" d="M371.16,234.23a17.19,17.19,0,0,0,8.17,7.87,1.19,1.19,0,0,1-.83,2.21,19.15,19.15,0,0,1-4.75-2,21.28,21.28,0,0,1-6.55-6C365.46,233.64,369.85,231.28,371.16,234.23Z"/><path class="cls-9" d="M365.74,231a26.1,26.1,0,0,0,6.56,10.12,14.82,14.82,0,0,0,3.3,2.25,1.18,1.18,0,0,1,.56,1.61c-1.46,2.37-7.94-3.27-9.18-4.64a35.47,35.47,0,0,1-5.64-8.32C360,229.11,364.86,227.93,365.74,231Z"/><path class="cls-10" d="M374.06,235.09a.18.18,0,0,1,0-.25.18.18,0,0,1,.25,0,21.21,21.21,0,0,0,5.77,4.27.18.18,0,1,1-.16.32,21.34,21.34,0,0,1-5.88-4.35Z"/><path class="cls-10" d="M372.39,237.5a.2.2,0,0,1,0-.25.18.18,0,0,1,.26,0,24.42,24.42,0,0,0,6.2,4.41.18.18,0,0,1-.16.33,25.43,25.43,0,0,1-6.3-4.49Z"/><path class="cls-10" d="M369.47,238.54l-.07-.08a.19.19,0,0,1,0-.26.18.18,0,0,1,.25,0h0a32.87,32.87,0,0,0,4.92,4.4.18.18,0,0,1-.21.29A32.4,32.4,0,0,1,369.47,238.54Z"/><path class="cls-11" d="M355.53,159.32s-11.9-.28-21,20.62-6.92,26.85-1.15,34.62S356.84,236,356.84,236a22.63,22.63,0,0,1,14.21-14.34l-21.33-21.61S364.64,175.72,355.53,159.32Z"/><path class="cls-8" d="M371.05,221.88a.16.16,0,0,1-.13-.06l-21.33-21.61a.18.18,0,0,1,0-.25,56.64,56.64,0,0,0,9.95-22.13.19.19,0,0,1,.37.08A57.55,57.55,0,0,1,350,200.07l21.21,21.49a.17.17,0,0,1,0,.26A.16.16,0,0,1,371.05,221.88Z"/><path class="cls-8" d="M367,166.68c-7,0-14.43-6.62-14.52-6.7a.19.19,0,0,1,0-.26.19.19,0,0,1,.27,0c.09.08,9.08,8.09,16.44,6.35,1.66-.39,2.71-1.14,3.11-2.23.85-2.31-1.41-5.42-1.43-5.45a.19.19,0,0,1,0-.26.17.17,0,0,1,.26,0c.1.13,2.4,3.31,1.48,5.8-.45,1.22-1.58,2-3.37,2.47A9.69,9.69,0,0,1,367,166.68Z"/><path class="cls-8" d="M387.94,201.6a.18.18,0,0,1-.18-.14c-1.94-7-.43-11.1,1-15.1.37-1,.73-2,1-3,1.14-3.87-4.77-10.93-4.83-11a.19.19,0,0,1,0-.27.18.18,0,0,1,.26,0c.25.3,6.11,7.29,4.91,11.36-.3,1-.68,2-1,3-1.44,3.94-2.94,8-1,14.87a.19.19,0,0,1-.13.23Z"/><path class="cls-8" d="M397.75,188.64a.15.15,0,0,1-.11,0,.18.18,0,0,1-.05-.26,14.15,14.15,0,0,1,3.64-3.39.18.18,0,0,1,.26.06.19.19,0,0,1-.06.26,14,14,0,0,0-3.53,3.29A.19.19,0,0,1,397.75,188.64Z"/><path class="cls-8" d="M353.74,233.76h-.05a.19.19,0,0,1-.13-.23,22.94,22.94,0,0,1,3-6.05,22.28,22.28,0,0,1,11.64-8.77.19.19,0,0,1,.12.36c-11.17,3.54-14.39,14.45-14.42,14.56A.2.2,0,0,1,353.74,233.76Z"/><path class="cls-8" d="M433.46,196a.28.28,0,0,1-.12,0,21.12,21.12,0,0,1-7.49-12.75,20.16,20.16,0,0,1-.11-6.67.19.19,0,0,1,.22-.15.19.19,0,0,1,.15.22,19.77,19.77,0,0,0,.11,6.55,20.74,20.74,0,0,0,7.36,12.5.19.19,0,0,1,0,.27A.21.21,0,0,1,433.46,196Z"/><path class="cls-9" d="M363.38,154.69h0a13.86,13.86,0,0,0,11.2-16.09l-1.27-7.09a13.86,13.86,0,0,0-16.09-11.19h0A13.86,13.86,0,0,0,346,136.41l1.27,7.08A13.86,13.86,0,0,0,363.38,154.69Z"/><path class="cls-9" d="M370.55,137a3.68,3.68,0,1,0,3-4.28A3.68,3.68,0,0,0,370.55,137Z"/><path class="cls-16" d="M358,136.67c.18,1-.09,1.92-.61,2s-1.09-.66-1.27-1.68.09-1.91.61-2S357.86,135.65,358,136.67Z"/><path class="cls-16" d="M366.28,135.19c.18,1-.09,1.92-.61,2s-1.09-.66-1.27-1.68.09-1.92.61-2S366.1,134.18,366.28,135.19Z"/><path class="cls-12" d="M352.8,141.36a1.48,1.48,0,1,0,1.45-1.37A1.42,1.42,0,0,0,352.8,141.36Z"/><path class="cls-12" d="M368.26,139.21a1.4,1.4,0,0,0,1.49,1.31,1.35,1.35,0,1,0-1.49-1.31Z"/><path class="cls-9" d="M342.48,141.28a3.68,3.68,0,1,0,3-4.27A3.68,3.68,0,0,0,342.48,141.28Z"/><path class="cls-7" d="M351.64,120.49s2.59-11,14.37-9.65,13.47,12,8,15.66c-3.83,2.55-14.77,1.45-19.29-.6,0,0,.1,5.7-6.52,7.72S339,123,351.64,120.49Z"/><path class="cls-17" d="M359.73,144.44c-.05.6.93,1.16,2.19,1.25s2.3-.32,2.35-.92-.94-1.16-2.19-1.25S359.77,143.84,359.73,144.44Z"/><path class="cls-10" d="M360.81,144.79a8.66,8.66,0,0,1-2.28-.85.21.21,0,0,1-.08-.29.2.2,0,0,1,.29-.09,7.85,7.85,0,0,0,6.51.47.2.2,0,0,1,.28.1.22.22,0,0,1-.1.29A8,8,0,0,1,360.81,144.79Z"/><path class="cls-10" d="M346.47,142.61a.21.21,0,0,1-.17-.19c-.12-1.08-.78-1.19-1.41-1.29a1.36,1.36,0,0,1-.93-.4.88.88,0,0,1-.11-.68,2.63,2.63,0,0,1,2.17-1.92.22.22,0,0,1,.25.18.21.21,0,0,1-.18.24c-.06,0-1.58.27-1.81,1.57a.49.49,0,0,0,0,.36c.09.13.36.17.65.22a1.76,1.76,0,0,1,1.77,1.67.22.22,0,0,1-.2.24Z"/><path class="cls-10" d="M374.54,138.49a.21.21,0,0,1-.17-.19,1.75,1.75,0,0,1,1.41-2c.27-.1.53-.2.59-.35a.46.46,0,0,0,0-.35c-.47-1.24-2.06-1.19-2.08-1.19a.21.21,0,0,1-.22-.21.21.21,0,0,1,.21-.22,2.61,2.61,0,0,1,2.5,1.46.88.88,0,0,1,0,.69c-.13.31-.47.44-.83.57-.6.23-1.22.46-1.13,1.54a.22.22,0,0,1-.2.24Z"/><path class="cls-2" d="M345,147a1.92,1.92,0,1,1,2.27-1.47A1.92,1.92,0,0,1,345,147Zm.71-3.33a1.49,1.49,0,1,0,1.14,1.77A1.49,1.49,0,0,0,345.7,143.62Z"/><path class="cls-2" d="M376.48,141.84a1.92,1.92,0,1,1,2.28-1.48A1.93,1.93,0,0,1,376.48,141.84Zm.71-3.33a1.49,1.49,0,1,0,1.14,1.76A1.48,1.48,0,0,0,377.19,138.51Z"/><path class="cls-10" d="M354.5,135.22a.38.38,0,0,1-.17-.08.36.36,0,0,1,0-.51,5.32,5.32,0,0,1,4-1.67.37.37,0,0,1,.34.39.36.36,0,0,1-.38.34,4.64,4.64,0,0,0-3.41,1.42A.35.35,0,0,1,354.5,135.22Z"/><path class="cls-10" d="M362.8,132.93a.36.36,0,0,1-.24-.18.35.35,0,0,1,.14-.49,4.24,4.24,0,0,1,3.83.07.36.36,0,0,1-.33.65,3.49,3.49,0,0,0-3.15-.09A.44.44,0,0,1,362.8,132.93Z"/><path class="cls-10" d="M361.74,141.72a.2.2,0,0,1-.16-.14.21.21,0,0,1,.13-.27c.49-.18,1.48-.68,1.39-1.11a41.63,41.63,0,0,0-1.81-4.12.22.22,0,0,1,.1-.29.22.22,0,0,1,.29.1,43.7,43.7,0,0,1,1.84,4.22c.2.91-1.47,1.53-1.66,1.6A.17.17,0,0,1,361.74,141.72Z"/><circle class="cls-7" cx="352.95" cy="109.77" r="9.11"/></g><g id="_8" data-name="8"><path class="cls-9" d="M576.54,334.86a9.33,9.33,0,0,0,1.81-.18,9,9,0,0,0,7-10.63l-15.11-74.47,34.49,1.25a9,9,0,0,0,.65-18l-45.92-1.66A9,9,0,0,0,550.33,242l17.39,85.69A9,9,0,0,0,576.54,334.86Z"/><path class="cls-13" d="M586.08,335.17a3.55,3.55,0,0,1-.55,1.16,3.31,3.31,0,0,1-2.71,1.42l-25.52.07a3,3,0,0,1-2.73-1.7,3.19,3.19,0,0,1-.3-.95,3.12,3.12,0,0,1,1-2.88l3.52-3.2,3.79-3.45a62.08,62.08,0,0,0,23.11-1.4l.28,5.57.22,4.27A3.58,3.58,0,0,1,586.08,335.17Z"/><path class="cls-13" d="M560.46,327.57s5.34-4.91,6.93-6.08,5.57.29,5.14,1.92-3.19,4.2-3.19,4.2Z"/><path class="cls-14" d="M554.05,335.2a3.39,3.39,0,0,0,1.89,2.56,3.18,3.18,0,0,0,1.34.28h0l25.52-.07a3.43,3.43,0,0,0,1.19-.21,3.68,3.68,0,0,0,2.28-2.53v-.09a.18.18,0,0,0,0-.1.18.18,0,0,0-.13-.08H554.24a.27.27,0,0,0-.14.07A.24.24,0,0,0,554.05,335.2Z"/><path class="cls-15" d="M564.47,330.67a.22.22,0,0,1-.19-.12,5.72,5.72,0,0,0-3.85-2.76.23.23,0,0,1-.19-.26.23.23,0,0,1,.26-.18,6.1,6.1,0,0,1,4.17,3,.22.22,0,0,1-.1.29A.17.17,0,0,1,564.47,330.67Z"/><path class="cls-15" d="M566.34,328.94a.24.24,0,0,1-.2-.12,5.72,5.72,0,0,0-3.85-2.76.23.23,0,0,1-.18-.26.22.22,0,0,1,.25-.18,6.12,6.12,0,0,1,4.17,3,.2.2,0,0,1-.09.29A.19.19,0,0,1,566.34,328.94Z"/><path class="cls-15" d="M568.12,327.33a.21.21,0,0,1-.19-.12,5.75,5.75,0,0,0-3.86-2.76.22.22,0,1,1,.07-.43,6.06,6.06,0,0,1,4.18,3,.22.22,0,0,1-.1.29A.17.17,0,0,1,568.12,327.33Z"/><path class="cls-14" d="M558.79,329.09s-5.32,3.08-4.74,6.11l9.81-.09A7.74,7.74,0,0,0,558.79,329.09Z"/><path class="cls-14" d="M586,329.81s-5.6.36-6.71,5.14l7,.28A35.12,35.12,0,0,0,586,329.81Z"/><path class="cls-18" d="M588,218.78s-32,13.63-39.52,28.2C541.6,260.33,560,314.56,560,314.56s12.87,5.25,29.17,0l-7.91-53.67s17.49-1.76,32.43-7.8c20.68-8.38,12.69-32.19,12.69-32.19a61.25,61.25,0,0,1-24.17,1.29C598.27,221.63,588,218.78,588,218.78Z"/><path class="cls-9" d="M540.45,333.28a9,9,0,0,0,9-8.7l2.55-71.7,38.81-11.82a9,9,0,0,0-5.26-17.25l-45,13.7a9,9,0,0,0-6.38,8.3l-2.78,78.13a9,9,0,0,0,8.69,9.33Z"/><path class="cls-13" d="M550,335.17a3.53,3.53,0,0,1-.54,1.16,3.33,3.33,0,0,1-2.71,1.42l-25.53.07a3,3,0,0,1-2.72-1.7,3.21,3.21,0,0,1-.31-.95,3.17,3.17,0,0,1,1-2.88l3.52-3.2,3.79-3.45a62.08,62.08,0,0,0,23.11-1.4l.29,5.57.21,4.27A3.58,3.58,0,0,1,550,335.17Z"/><path class="cls-13" d="M524.39,327.57s5.33-4.91,6.92-6.08,5.57.29,5.14,1.92-3.18,4.2-3.18,4.2Z"/><path class="cls-14" d="M518,335.2a3.42,3.42,0,0,0,1.9,2.56,3.14,3.14,0,0,0,1.34.28h0l25.53-.07a3.33,3.33,0,0,0,1.18-.21,3.65,3.65,0,0,0,2.28-2.53.31.31,0,0,0,0-.09.19.19,0,0,0-.05-.1.16.16,0,0,0-.12-.08H518.16a.27.27,0,0,0-.14.07A.24.24,0,0,0,518,335.2Z"/><path class="cls-15" d="M528.4,330.67a.24.24,0,0,1-.2-.12,5.68,5.68,0,0,0-3.85-2.76.23.23,0,0,1-.18-.26.22.22,0,0,1,.25-.18,6.08,6.08,0,0,1,4.17,3,.21.21,0,0,1-.09.29A.19.19,0,0,1,528.4,330.67Z"/><path class="cls-15" d="M530.26,328.94a.22.22,0,0,1-.19-.12,5.75,5.75,0,0,0-3.86-2.76.22.22,0,1,1,.08-.44,6.14,6.14,0,0,1,4.17,3,.22.22,0,0,1-.1.29A.17.17,0,0,1,530.26,328.94Z"/><path class="cls-15" d="M532.05,327.33a.24.24,0,0,1-.2-.12,5.76,5.76,0,0,0-3.85-2.76.22.22,0,1,1,.07-.43,6.05,6.05,0,0,1,4.17,3,.21.21,0,0,1-.09.29Z"/><path class="cls-14" d="M522.71,329.09s-5.32,3.08-4.74,6.11l9.81-.09A7.72,7.72,0,0,0,522.71,329.09Z"/><path class="cls-14" d="M549.9,329.81s-5.61.36-6.71,5.14l7,.28A35.71,35.71,0,0,0,549.9,329.81Z"/><path class="cls-18" d="M587.55,217.58s-40.35,4.84-53.06,22.57c-9.66,13.48-10.14,74.41-10.14,74.41s12.88,5.25,29.18,0l4.13-53.46s21.92-1,37.18-6.2c24.64-8.37,28.78-34,28.78-34Z"/><path class="cls-19" d="M555,297.86h0a.2.2,0,0,0,.16-.25c-.07-.33-7.3-33.76-8-39.38a19.24,19.24,0,0,1,2.37-12.41c3.48-6.28,10.58-12.3,21.11-17.89a.22.22,0,0,0,.09-.29.2.2,0,0,0-.28-.08c-10.61,5.63-17.77,11.7-21.29,18a19.68,19.68,0,0,0-2.41,12.67c.69,5.64,7.92,39.08,8,39.42A.21.21,0,0,0,555,297.86Z"/><path class="cls-19" d="M571.92,310.46a73.82,73.82,0,0,0,16.4-1.89.2.2,0,0,0,.15-.25.2.2,0,0,0-.25-.16c-.17,0-16.63,4.2-30.14,0a.21.21,0,0,0-.27.14.22.22,0,0,0,.14.26A48,48,0,0,0,571.92,310.46Z"/><path class="cls-19" d="M538.55,310.27a69.92,69.92,0,0,0,15.51-1.7.21.21,0,0,0,.15-.25.22.22,0,0,0-.26-.16c-.15,0-15.11,3.78-29.42,0a.23.23,0,0,0-.26.15.21.21,0,0,0,.15.26A56,56,0,0,0,538.55,310.27Z"/><path class="cls-4" d="M553.42,120.7s-9.33-1.14-16.09,5.38C537.33,126.08,546.26,129.6,553.42,120.7Z"/><path class="cls-20" d="M629.34,117.82s5.22,4.7,7.81,15.21c1.88,7.62,7.57,20.55,9.68,27.92,8.53,29.76-4.08,43.09-41.44,37-17.65-2.86-19.87-17.08-15.39-28.73s9.5-22.65,8.28-36.2c0,0,4.42-11.32,11.63-12.6S629.34,117.82,629.34,117.82Z"/><rect class="cls-9" x="603.54" y="146.81" width="21.28" height="13.58" transform="translate(360.55 733.66) rotate(-80.42)"/><path class="cls-12" d="M616.94,155a13.29,13.29,0,0,1-10,.81l1.24-7.3Z"/><path class="cls-9" d="M611,155.16h0a14.26,14.26,0,0,1-11.48-16.6l1.33-7.29a14.27,14.27,0,0,1,16.61-11.48h0A14.26,14.26,0,0,1,629,136.39l-1.33,7.29A14.26,14.26,0,0,1,611,155.16Z"/><path class="cls-9" d="M579.45,215.86c3.94-8.3,9-19.56,9.14-35.6.09-12.53,11.73-23.58,24.36-21.85l.81.14c12,2.23,15.93,15.26,12.58,27.34a68.7,68.7,0,0,0-.53,35.73Z"/><path class="cls-9" d="M607.53,170.34a8.38,8.38,0,0,0-5.92-10.27L565,150.23,548.72,116a5.4,5.4,0,0,0-10,3.94l12.66,40.44a7.42,7.42,0,0,0,5.09,4.89l40.82,11A8.38,8.38,0,0,0,607.53,170.34Z"/><path class="cls-16" d="M616.58,136.62c-.19,1,.08,2,.62,2.07s1.12-.67,1.31-1.72-.09-2-.62-2.07S616.77,135.57,616.58,136.62Z"/><path class="cls-2" d="M606.46,158.56s-14.38-5.09-39.55-9.47c0,0-8.14-18.6-13.49-28.39a22.93,22.93,0,0,1-16.09,5.38s6.73,34.92,15.55,40S588,178.45,588,178.45Z"/><path class="cls-16" d="M608.1,135.08c-.19,1,.09,2,.62,2.07s1.12-.67,1.31-1.72-.09-2-.62-2.07S608.29,134,608.1,135.08Z"/><path class="cls-21" d="M622,141.47a1.52,1.52,0,1,1-1.48-1.41A1.45,1.45,0,0,1,622,141.47Z"/><path class="cls-21" d="M606,139.2a1.52,1.52,0,1,1-1.48-1.41A1.44,1.44,0,0,1,606,139.2Z"/><path class="cls-2" d="M606.46,158.56s-6.93.36-15.14,9.2c-2.25,2.42-7.57,9-8.29,13.27-.78,4.63,3.5,8.05,2.08,16.43s-8.38,12.62-5.66,18.4c1.59,3.4,32,12.81,46.51,6.6,8-3.46-2.88-15.1,3.83-37.51,5.11-17.07-4.06-21.47-9.94-24.13,0,0-7,12.45-11.53,11.44S606.46,158.56,606.46,158.56Z"/><path class="cls-9" d="M632.64,141.54a3.79,3.79,0,1,1-3-4.41A3.79,3.79,0,0,1,632.64,141.54Z"/><path class="cls-20" d="M612.41,116.11a10.14,10.14,0,0,0-11.53,2.42c-4.66,4.8-3.82,10.86-2.11,16.62C598.77,135.15,609.37,124.47,612.41,116.11Z"/><circle class="cls-9" cx="599.97" cy="136.22" r="3.79" transform="translate(124.91 527.16) rotate(-52.24)"/><path class="cls-12" d="M613.69,145.57a2.19,2.19,0,0,1-4.29-.6,1.59,1.59,0,0,1,.23-.64,2.16,2.16,0,0,1,2.17-.92,2.24,2.24,0,0,1,1.74,1.21A1.61,1.61,0,0,1,613.69,145.57Z"/><path class="cls-15" d="M613.54,144.62c-2.67.78-3.91-.29-3.91-.29h0a2.16,2.16,0,0,1,2.17-.92A2.24,2.24,0,0,1,613.54,144.62Z"/><path class="cls-10" d="M599.49,138.39a.22.22,0,0,1-.14-.26c.21-1.09-.4-1.4-1-1.7-.36-.17-.69-.34-.8-.67a.9.9,0,0,1,.1-.7,2.71,2.71,0,0,1,2.73-1.23.22.22,0,0,1,.18.25.22.22,0,0,1-.25.19,2.26,2.26,0,0,0-2.26,1,.49.49,0,0,0-.08.36c0,.16.31.28.57.42a1.8,1.8,0,0,1,1.23,2.18.21.21,0,0,1-.26.17Z"/><path class="cls-10" d="M628.48,143a.23.23,0,0,1-.15-.22,1.81,1.81,0,0,1,1.69-1.85c.3-.07.57-.13.66-.27a.51.51,0,0,0,0-.37c-.33-1.33-2-1.48-2-1.48a.23.23,0,0,1,0-.45,2.69,2.69,0,0,1,2.37,1.82.89.89,0,0,1-.05.71,1.42,1.42,0,0,1-.93.47c-.64.16-1.31.32-1.35,1.43a.23.23,0,0,1-.23.22Z"/><path class="cls-20" d="M606.79,119.59s1.91,8.1,9.61,9.31c9,1.41,11.26,13.44,11.26,13.44s6.38-8,5.69-14.44C631.77,113.18,617.51,107.72,606.79,119.59Z"/><path class="cls-10" d="M607.52,131.09a.35.35,0,0,1-.13-.08.37.37,0,0,1,0-.52,3.6,3.6,0,0,1,2.42-1.16,3,3,0,0,1,2.23,1.14.37.37,0,0,1,0,.53.37.37,0,0,1-.52,0,2.28,2.28,0,0,0-1.68-.89,2.82,2.82,0,0,0-1.86.9A.38.38,0,0,1,607.52,131.09Z"/><path class="cls-10" d="M616.06,131.93a.39.39,0,0,1-.12-.64,3,3,0,0,1,2.18-.62,3.33,3.33,0,0,1,2.23,1.71.37.37,0,0,1-.64.39,2.6,2.6,0,0,0-1.7-1.36,2.21,2.21,0,0,0-1.59.45A.37.37,0,0,1,616.06,131.93Z"/><path class="cls-10" d="M612,142h0c-.19-.1-1.8-1-1.48-1.87a44.06,44.06,0,0,1,2.49-4,.22.22,0,1,1,.36.24,43.35,43.35,0,0,0-2.43,3.95c-.15.42.78,1.08,1.26,1.33a.23.23,0,0,1,.1.3A.22.22,0,0,1,612,142Z"/><path class="cls-22" d="M589.55,192.1a12.2,12.2,0,0,1-5.16-3.31.22.22,0,0,1,0-.32.23.23,0,0,1,.31,0,12.49,12.49,0,0,0,8.17,3.83.22.22,0,0,1,.21.23.22.22,0,0,1-.24.21A13.73,13.73,0,0,1,589.55,192.1Z"/><path class="cls-4" d="M607.73,195.38c-.36-.12-.55-.2-.57-.21a.21.21,0,0,1-.11-.29.22.22,0,0,1,.29-.11,26.77,26.77,0,0,0,13.44,1,.23.23,0,0,1,.26.19.22.22,0,0,1-.19.25A28.22,28.22,0,0,1,607.73,195.38Z"/><path class="cls-9" d="M548.59,117.72s-2.46-5.55-7-7.78-6.76-2.09-8.69-1.19,2.85,8.63,5.73,10.31S545.56,121.48,548.59,117.72Z"/><path class="cls-9" d="M549,116.64a27.69,27.69,0,0,0-3.35-6.28,24.89,24.89,0,0,0-2.69-3.21,22,22,0,0,0-1.89-1.68,1.31,1.31,0,0,0-1.81,1.88c1,1.07.72.79,1,1.17.53.69.37.47.73,1-.56-.37-1.16-.81-1.69-1.21a34.27,34.27,0,0,1-3.22-2.87,26.43,26.43,0,0,1-2.75-3.33,1.2,1.2,0,0,0-2.09,1.17,28,28,0,0,0,2.08,3.73,27.66,27.66,0,0,1-3.12-3.37,1.2,1.2,0,0,0-2,1.28,30.51,30.51,0,0,0,1.87,3.08c-.23-.2,0,0-1-.91l-.83-.86a1.2,1.2,0,0,0-1.86,1.49,20.86,20.86,0,0,0,2,2.7c.88,1,1.31,1.32.44.58a16.4,16.4,0,0,1-1.34-1.31,1.2,1.2,0,0,0-1.81,1.56,20.53,20.53,0,0,0,1.93,2.37l1.09,1.07c.89.76,1,.83,1.17,1a18.71,18.71,0,0,0,1.64,1.19,26.94,26.94,0,0,0,7.74,3.56,2.29,2.29,0,1,0,.57-4.51l-.15,0a2.23,2.23,0,0,0,.28-1.45,1,1,0,0,0,.12-.23,2.28,2.28,0,0,0,2.71-1.53,23.85,23.85,0,0,1,1.39,3.6c.1.35.33,1.17.34,1.32a2.3,2.3,0,1,0,4.46-.94Z"/><path class="cls-10" d="M534,115.61l0,0a20.73,20.73,0,0,1-4.68-3.91.21.21,0,0,1,0-.31.22.22,0,0,1,.31,0,20.43,20.43,0,0,0,4.56,3.82.21.21,0,0,1,.08.3A.2.2,0,0,1,534,115.61Z"/><path class="cls-10" d="M534.74,112.81l-.07,0A33,33,0,0,1,530.1,108a.22.22,0,1,1,.36-.26,32.76,32.76,0,0,0,4.5,4.65.22.22,0,0,1,0,.31A.21.21,0,0,1,534.74,112.81Z"/><path class="cls-10" d="M537.06,111.28l-.07,0a27.1,27.1,0,0,1-3.53-4.06.22.22,0,1,1,.36-.25,29.35,29.35,0,0,0,3.46,4,.22.22,0,0,1,0,.31A.24.24,0,0,1,537.06,111.28Z"/><path class="cls-10" d="M538.91,115.7a.24.24,0,0,1-.14-.14.23.23,0,0,1,.15-.28,7.22,7.22,0,0,1,2.87-.15,9.49,9.49,0,0,1-.83-3.44.23.23,0,0,1,.21-.23.22.22,0,0,1,.23.22,8.85,8.85,0,0,0,1,3.62.23.23,0,0,1,0,.25.24.24,0,0,1-.23.09,7.47,7.47,0,0,0-3.11.06A.17.17,0,0,1,538.91,115.7Z"/><path class="cls-4" d="M584.3,177.61l0,0a.21.21,0,0,1-.07-.3,43.59,43.59,0,0,1,7.57-8.42.22.22,0,1,1,.29.34,43.34,43.34,0,0,0-7.49,8.32A.22.22,0,0,1,584.3,177.61Z"/><path class="cls-4" d="M538.14,130.45a.22.22,0,0,1,.09-.43c.1,0,10.61.71,17-5.79a.21.21,0,0,1,.31,0,.22.22,0,0,1,0,.31c-6.51,6.65-17.22,5.93-17.33,5.92Z"/><path class="cls-23" d="M607,186.65l-16.17-2h0a2.32,2.32,0,0,1,2.57-2L605,184.08a2.31,2.31,0,0,1,2,2.57Z"/><rect class="cls-14" x="574.25" y="190.42" width="44.79" height="34.87" rx="4.18" transform="translate(318.49 775.14) rotate(-83.09)"/><path class="cls-9" d="M646.15,214.19l-8-34.83a8.38,8.38,0,1,0-16.34,3.75l5.61,24.49-33,1.41a5.4,5.4,0,0,0-.28,10.78l43.5,4.11a8,8,0,0,0,2.53-.17A8,8,0,0,0,646.15,214.19Z"/><path class="cls-9" d="M601,211.75s-5.14-3.23-10.12-2.58-6.78,2-7.87,3.85,7.17,5.58,10.5,5.36S600.6,216.56,601,211.75Z"/><path class="cls-9" d="M597.59,213.89a23.87,23.87,0,0,0-7.9-4.92c-.38-.12-1-.34-1.38-.43-.93-.12-2-.67-1.74-1.8.47-1.65,2.69-.73,3.9-.64a27.15,27.15,0,0,1,10.3,4.53C603.41,212.72,599.76,216.48,597.59,213.89Z"/><path class="cls-9" d="M590.67,213.65a32.55,32.55,0,0,1-12.09-4.25,1.21,1.21,0,0,1,1-2.16,27.3,27.3,0,0,0,3.14,1,30.36,30.36,0,0,0,8.1.88C594.44,208.71,594.24,214.31,590.67,213.65Z"/><path class="cls-9" d="M589.34,216.17a34.06,34.06,0,0,1-12.39-3.7,1.21,1.21,0,0,1,.92-2.21,27.79,27.79,0,0,0,3.59.92,31.54,31.54,0,0,0,7.88.47C592.86,211.12,592.88,216.65,589.34,216.17Z"/><path class="cls-9" d="M590.35,217.65A27.26,27.26,0,0,1,577,215.8a1.2,1.2,0,0,1,.81-2.26l1.08.24a24.53,24.53,0,0,0,10.54-.56C592.82,211.94,594,217.43,590.35,217.65Z"/><path class="cls-9" d="M594.52,219.26a26.33,26.33,0,0,1-12.18.93,20.52,20.52,0,0,1-3.92-1.08,1.2,1.2,0,0,1,.63-2.3l1,.19a20.93,20.93,0,0,0,10.4-1,19.62,19.62,0,0,0,2.33-.95C595.78,213.28,597.92,218.3,594.52,219.26Z"/><path class="cls-10" d="M581.6,217.51a.23.23,0,0,1-.15-.27.24.24,0,0,1,.28-.16,20.19,20.19,0,0,0,5.92.63.22.22,0,0,1,0,.44,20.59,20.59,0,0,1-6.07-.64Z"/><path class="cls-10" d="M580.29,214h0a.22.22,0,0,1,.14-.42h0a32.75,32.75,0,0,0,6.32,1.36.22.22,0,0,1,.2.25.21.21,0,0,1-.25.19A32.93,32.93,0,0,1,580.29,214Z"/><path class="cls-10" d="M583.39,211.72l-.81-.29a.23.23,0,0,1-.13-.29.23.23,0,0,1,.29-.13,27.38,27.38,0,0,0,5.09,1.38.22.22,0,0,1,.19.25.21.21,0,0,1-.25.19A25.72,25.72,0,0,1,583.39,211.72Z"/><path class="cls-2" d="M619.85,160.82s16.77,1.89,22.86,20.9,7.46,34.44,3.52,41c-5,8.27-44,2.38-44,2.38s-3.6-7.21.25-18.24a207.77,207.77,0,0,1,21.89-.63S616.38,174.11,619.85,160.82Z"/><path class="cls-4" d="M614.34,206.4a.22.22,0,0,1-.15-.21.22.22,0,0,1,.22-.22l9.65,0c-2-7.43-4-24.61-4-24.79a.23.23,0,0,1,.45-.05c0,.18,2,17.77,4.08,25a.21.21,0,0,1,0,.19.21.21,0,0,1-.18.09c-.06,0-6.32,0-9.94,0Z"/><path class="cls-4" d="M606.68,225.9a.2.2,0,0,1-.13-.14c-3.06-8.26.31-19.19.35-19.3a.21.21,0,0,1,.27-.14.22.22,0,0,1,.15.28c0,.11-3.36,10.89-.36,19a.22.22,0,0,1-.13.29Z"/><path class="cls-4" d="M607.23,174.67a4.9,4.9,0,0,1-2.77-2.35c-2.68-4.72-.16-14-.05-14.43a.23.23,0,0,1,.27-.16.24.24,0,0,1,.16.28c0,.09-2.59,9.53,0,14.09a4.49,4.49,0,0,0,2.79,2.24c6.75,1.85,13.9-13.08,14-13.23a.23.23,0,0,1,.41.19c-.3.63-7.39,15.42-14.49,13.47Z"/><path class="cls-10" d="M610.76,147.23a2.18,2.18,0,0,1-1.58-2.29,1.73,1.73,0,0,1,.26-.73,2.38,2.38,0,0,1,2.39-1,2.48,2.48,0,0,1,1.91,1.33,1.92,1.92,0,0,1,.17,1.08h0A2,2,0,0,1,613,147a2.57,2.57,0,0,1-1.75.36A2.5,2.5,0,0,1,610.76,147.23Zm1.43-3.5a2.11,2.11,0,0,0-2.37.71,1.31,1.31,0,0,0-.2.56,1.8,1.8,0,0,0,1.7,1.9,2.09,2.09,0,0,0,1.44-.29,1.53,1.53,0,0,0,.71-1.07,1.4,1.4,0,0,0-.13-.83A1.94,1.94,0,0,0,612.19,143.73Z"/></g><g id="_6" data-name="6"><path class="cls-19" d="M311.54,203.67s2.06,10.2-6.39,15C305.15,218.71,301.9,210.64,311.54,203.67Z"/><path class="cls-9" d="M262.19,334.86a9.16,9.16,0,0,1-1.8-.18,9,9,0,0,1-7-10.63l15.11-74.47L234,250.83a9,9,0,0,1-.65-18l45.92-1.66A9,9,0,0,1,288.4,242L271,327.64A9,9,0,0,1,262.19,334.86Z"/><path class="cls-13" d="M252.65,335.17a3.55,3.55,0,0,0,.55,1.16,3.31,3.31,0,0,0,2.71,1.42l25.53.07a3,3,0,0,0,2.72-1.7,3.19,3.19,0,0,0,.3-.95,3.12,3.12,0,0,0-1-2.88l-3.52-3.2-3.79-3.45a62.08,62.08,0,0,1-23.11-1.4l-.28,5.57-.22,4.27A3.58,3.58,0,0,0,252.65,335.17Z"/><path class="cls-13" d="M278.27,327.57s-5.34-4.91-6.93-6.08-5.57.29-5.13,1.92,3.18,4.2,3.18,4.2Z"/><path class="cls-14" d="M284.63,335a.27.27,0,0,0-.14-.07H252.61a.18.18,0,0,0-.13.08.18.18,0,0,0,0,.1v.09a3.68,3.68,0,0,0,2.28,2.53,3.43,3.43,0,0,0,1.19.21l25.52.07h0a3.18,3.18,0,0,0,1.34-.28,3.39,3.39,0,0,0,1.89-2.56A.24.24,0,0,0,284.63,335Z"/><path class="cls-15" d="M274.26,330.67a.22.22,0,0,0,.19-.12,5.71,5.71,0,0,1,3.86-2.76.22.22,0,0,0-.08-.44,6.1,6.1,0,0,0-4.17,3,.22.22,0,0,0,.1.29A.17.17,0,0,0,274.26,330.67Z"/><path class="cls-15" d="M272.39,328.94a.24.24,0,0,0,.2-.12,5.72,5.72,0,0,1,3.85-2.76.23.23,0,0,0,.18-.26.22.22,0,0,0-.25-.18,6.12,6.12,0,0,0-4.17,3,.21.21,0,0,0,.09.29Z"/><path class="cls-15" d="M270.61,327.33a.21.21,0,0,0,.19-.12,5.75,5.75,0,0,1,3.86-2.76.22.22,0,1,0-.07-.43,6.06,6.06,0,0,0-4.18,3,.22.22,0,0,0,.1.29A.19.19,0,0,0,270.61,327.33Z"/><path class="cls-14" d="M279.94,329.09s5.32,3.08,4.74,6.11l-9.81-.09A7.74,7.74,0,0,1,279.94,329.09Z"/><path class="cls-14" d="M252.76,329.81s5.6.36,6.71,5.14l-7,.28A35.12,35.12,0,0,1,252.76,329.81Z"/><path class="cls-16" d="M250.69,218.78s32,13.63,39.52,28.2c6.92,13.35-11.49,67.58-11.49,67.58s-12.87,5.25-29.17,0l7.29-49.43s-17.78-2.87-32.22-10C204.51,245.14,215,221,215,221s7.81,3.08,21.49,1.15C240.46,221.63,250.69,218.78,250.69,218.78Z"/><path class="cls-9" d="M308.29,333.28a9,9,0,0,1-9-8.7l-2.55-71.7-38.8-11.82a9,9,0,1,1,5.25-17.25l45,13.7a9,9,0,0,1,6.38,8.3l2.79,78.13a9,9,0,0,1-8.69,9.33Z"/><path class="cls-13" d="M298.74,335.17a3.36,3.36,0,0,0,.55,1.16,3.31,3.31,0,0,0,2.71,1.42l25.52.07a3,3,0,0,0,2.73-1.7,3.51,3.51,0,0,0,.3-.95,3.15,3.15,0,0,0-1-2.88l-3.52-3.2-3.79-3.45a62.08,62.08,0,0,1-23.11-1.4l-.28,5.57-.22,4.27A3.58,3.58,0,0,0,298.74,335.17Z"/><path class="cls-13" d="M324.36,327.57s-5.34-4.91-6.93-6.08-5.57.29-5.14,1.92,3.19,4.2,3.19,4.2Z"/><path class="cls-14" d="M330.72,335a.27.27,0,0,0-.14-.07H298.69a.16.16,0,0,0-.12.08.31.31,0,0,0-.05.1.62.62,0,0,1,0,.09,3.65,3.65,0,0,0,2.28,2.53A3.43,3.43,0,0,0,302,338l25.52.07h0a3.18,3.18,0,0,0,1.34-.28,3.41,3.41,0,0,0,1.89-2.56A.24.24,0,0,0,330.72,335Z"/><path class="cls-15" d="M320.35,330.67a.24.24,0,0,0,.19-.12,5.72,5.72,0,0,1,3.85-2.76.23.23,0,0,0,.18-.26.22.22,0,0,0-.25-.18,6.08,6.08,0,0,0-4.17,3,.21.21,0,0,0,.1.29A.17.17,0,0,0,320.35,330.67Z"/><path class="cls-15" d="M318.48,328.94a.24.24,0,0,0,.2-.12,5.72,5.72,0,0,1,3.85-2.76.23.23,0,0,0,.18-.26.22.22,0,0,0-.25-.18,6.1,6.1,0,0,0-4.17,3,.2.2,0,0,0,.09.29A.19.19,0,0,0,318.48,328.94Z"/><path class="cls-15" d="M316.7,327.33a.22.22,0,0,0,.19-.12,5.76,5.76,0,0,1,3.85-2.76.22.22,0,0,0,.19-.25.23.23,0,0,0-.26-.18,6.07,6.07,0,0,0-4.17,3,.22.22,0,0,0,.1.29A.17.17,0,0,0,316.7,327.33Z"/><path class="cls-14" d="M326,329.09s5.32,3.08,4.74,6.11l-9.81-.09A7.72,7.72,0,0,1,326,329.09Z"/><path class="cls-14" d="M298.85,329.81s5.6.36,6.71,5.14l-7,.28A35.12,35.12,0,0,1,298.85,329.81Z"/><path class="cls-16" d="M261.19,217.58s40.35,4.84,53.06,22.57c9.66,13.48,10.14,74.41,10.14,74.41s-12.87,5.25-29.17,0l-4.13-53.46s-21.92-1-37.18-6.2c-24.65-8.37-28.79-34-28.79-34Z"/><path class="cls-8" d="M266.81,310.46a73.82,73.82,0,0,1-16.4-1.89.21.21,0,0,1,.1-.41c.17,0,16.63,4.2,30.15,0a.2.2,0,0,1,.26.14.22.22,0,0,1-.14.26A48,48,0,0,1,266.81,310.46Z"/><path class="cls-8" d="M310.2,310.27a69.81,69.81,0,0,1-15.51-1.7.21.21,0,0,1-.16-.25.22.22,0,0,1,.26-.16c.15,0,15.11,3.78,29.42,0a.22.22,0,0,1,.26.15.21.21,0,0,1-.15.26A56,56,0,0,1,310.2,310.27Z"/><path class="cls-9" d="M261.21,231.83c3.49.1,8.77,2,12.17,4.27.74.49,1.71,1.17,1.12,2.12s-1.53.59-2.26.22a21.9,21.9,0,0,0-10.15-1.15C258.73,238.05,257.77,231.57,261.21,231.83Z"/><path class="cls-9" d="M321,217.49c1.22-2.88,3.74-5.65.87-6.87l-33.39-14.17c.3-.81-15.63-30-15.4-30.82a8,8,0,1,0-15.23-4.6c-.1.33,17.35,36.66,17.26,37a5.88,5.88,0,0,0,3.41,7.12l38.55,15.62A5.43,5.43,0,0,0,321,217.49Z"/><path class="cls-18" d="M256.42,145.22s23.53,2.26,36.76,48l18.36,10.45a24.88,24.88,0,0,0-6.39,15s-30.47-3.66-35.55-14.27c-7.15-14.94-13.37-58.09-13.37-58.09Z"/><rect class="cls-9" x="240.36" y="129.91" width="12.94" height="20.29" transform="translate(-4.22 7.71) rotate(-1.77)"/><path class="cls-12" d="M242.62,140a22.18,22.18,0,0,0,10.75,2l-.12-3.93Z"/><path class="cls-24" d="M259.77,119.48a10.58,10.58,0,0,0,.73-7.22l-4.1.89A19.2,19.2,0,0,1,259.77,119.48Z"/><path class="cls-9" d="M249,140.67h0a13.59,13.59,0,0,0,11.59-15.36l-1-7a13.62,13.62,0,0,0-15.37-11.59h0a13.61,13.61,0,0,0-11.59,15.36l1,7A13.61,13.61,0,0,0,249,140.67Z"/><path class="cls-9" d="M228.6,127a3.61,3.61,0,1,0,3.08-4.08A3.61,3.61,0,0,0,228.6,127Z"/><circle class="cls-9" cx="260.27" cy="123.06" r="3.61" transform="translate(20.83 282.92) rotate(-59.03)"/><path class="cls-9" d="M249,221.18l.78,0a21.64,21.64,0,0,0,21-22.31l-1-33.12c-.37-11.95-11.84-20.82-22.31-21l-.78,0c-10,.31-21.33,10.35-21,22.3l1,33.13A21.64,21.64,0,0,0,249,221.18Z"/><path class="cls-16" d="M244.43,122.79c.14,1-.16,1.88-.67,1.95s-1-.69-1.18-1.69.16-1.88.67-2S244.29,121.78,244.43,122.79Z"/><path class="cls-16" d="M252.57,121.65c.14,1-.16,1.88-.67,1.95s-1.05-.68-1.19-1.69.17-1.88.68-2S252.43,120.65,252.57,121.65Z"/><path class="cls-24" d="M266.06,108.53c-2.93-4.6-7.78-2.7-11.16-5.67-2.49-2.18-10.12-5.22-15.05-2.92a9.89,9.89,0,0,0-5.67,7.77,8.21,8.21,0,0,0-4.54,6.43c-.58,4.17,3.13,8.82,3.13,8.82a11.33,11.33,0,0,0,5.53-6.26,18.06,18.06,0,0,0,1.11-5.67,35.13,35.13,0,0,1,6.17-.16c6.27.62,6.66,4.73,13,5.73C266,117.75,268.1,111.72,266.06,108.53Z"/><path class="cls-12" d="M239.12,127.19a1.45,1.45,0,0,0,2.88.06,1.45,1.45,0,0,0-2.88-.06Z"/><path class="cls-12" d="M254.36,125.67a1.39,1.39,0,0,0,1.42,1.34,1.32,1.32,0,1,0-1.42-1.34Z"/><path class="cls-10" d="M260.47,125.19a.21.21,0,0,1-.21-.18,1.72,1.72,0,0,1,1.29-2c.26-.11.51-.22.57-.37a.5.5,0,0,0-.05-.34,2.14,2.14,0,0,0-2.1-1.07.21.21,0,0,1-.23-.2.22.22,0,0,1,.2-.23,2.58,2.58,0,0,1,2.51,1.33.81.81,0,0,1,.06.67c-.12.31-.44.45-.79.6-.58.25-1.18.5-1,1.56a.21.21,0,0,1-.18.24Z"/><path class="cls-10" d="M232.2,128.9h0a.2.2,0,0,1-.19-.23c.1-1.06-.51-1.29-1.1-1.52-.35-.14-.68-.27-.81-.57a.86.86,0,0,1,0-.68,2.57,2.57,0,0,1,2.47-1.41.21.21,0,0,1,.2.22.23.23,0,0,1-.22.21,2.12,2.12,0,0,0-2.06,1.14.46.46,0,0,0,0,.35c.06.14.31.24.58.34a1.72,1.72,0,0,1,1.36,2A.21.21,0,0,1,232.2,128.9Z"/><path class="cls-18" d="M253.48,145.44s14.51,3,19.91,20.19c6.06,19.28,6,32.86,6.58,54.67.09,3.34-14.11,6.95-24.71,8.47-12,1.72-33.1-1.16-38.2-5-6.47-4.9.37-19.21,1.89-33.66,2.07-19.73.61-36.71,21.59-44.25C240.54,145.84,250.94,152.66,253.48,145.44Z"/><path class="cls-10" d="M247.78,130.61a8,8,0,0,1-2.47-.46.21.21,0,1,1,.14-.4,7.61,7.61,0,0,0,5.93-.39.21.21,0,0,1,.21.37A8,8,0,0,1,247.78,130.61Z"/><path class="cls-10" d="M248.46,128.13a.21.21,0,0,1-.19-.13.21.21,0,0,1,.11-.27c.48-.2,1.42-.74,1.32-1.15a39.79,39.79,0,0,0-2-4,.21.21,0,0,1,.08-.29.21.21,0,0,1,.29.09,43.88,43.88,0,0,1,2,4c.23.88-1.38,1.57-1.56,1.65A.14.14,0,0,1,248.46,128.13Z"/><path class="cls-10" d="M253.28,119.66a.47.47,0,0,1-.12-.09,6.4,6.4,0,0,0-4-1.59.35.35,0,0,1-.35-.35.36.36,0,0,1,.35-.36,7,7,0,0,1,4.54,1.81.35.35,0,0,1,0,.5A.36.36,0,0,1,253.28,119.66Z"/><path class="cls-10" d="M241,121.1a.33.33,0,0,1-.3-.06.36.36,0,0,1-.06-.5,7.53,7.53,0,0,1,4.37-2.61.36.36,0,0,1,.12.7,6.93,6.93,0,0,0-3.93,2.35A.32.32,0,0,1,241,121.1Z"/><path class="cls-19" d="M260.45,226.14s-.57,7.58-8.53,13.25A15.1,15.1,0,0,1,260.45,226.14Z"/><path class="cls-9" d="M258.5,232.41s5.77.43,9.22,3.74,4.06,5.39,3.87,7.41-8.66.22-11.1-1.83S256.11,236.34,258.5,232.41Z"/><path class="cls-9" d="M267.79,236.16a27.86,27.86,0,0,0,9.7,4.9,1.15,1.15,0,0,1-.43,2.24,27.51,27.51,0,0,1-4.5-.78,31.28,31.28,0,0,1-7.45-3C262.37,237.86,265.47,233.9,267.79,236.16Z"/><path class="cls-9" d="M268.38,238.21a24.64,24.64,0,0,0,5.91,4.26c1.11.94,4.33.86,3.88,2.78-.66,1.88-5.72-.43-7.12-.84a25.45,25.45,0,0,1-5.83-3.2C262.63,239.11,266.39,235.51,268.38,238.21Z"/><path class="cls-9" d="M267.57,239.78a17.91,17.91,0,0,0,8.42,6.33,1.14,1.14,0,0,1-.61,2.19,18.84,18.84,0,0,1-4.51-1.33,21.29,21.29,0,0,1-7.13-5C261.38,239.2,266.34,236.34,267.57,239.78Z"/><path class="cls-9" d="M262.87,238.84a21.55,21.55,0,0,0,7.61,7.91c1.09,1.05,4.67,1.11,4.19,2.94-1,2.37-7.76-1.53-9.22-2.53A25.53,25.53,0,0,1,259,240.8C257.26,238.08,261.72,235.84,262.87,238.84Z"/><path class="cls-10" d="M272.43,241.93a14,14,0,0,1-2.2-1.42.21.21,0,0,1,0-.3.21.21,0,0,1,.29,0,20.23,20.23,0,0,0,5.22,2.71.21.21,0,0,1,.13.27.23.23,0,0,1-.27.14A26.41,26.41,0,0,1,272.43,241.93Z"/><path class="cls-10" d="M272,244.55a16.51,16.51,0,0,1-2.1-1.28.2.2,0,0,1-.05-.29.21.21,0,0,1,.3,0,26.59,26.59,0,0,0,4.52,2.42.22.22,0,0,1,.12.28.21.21,0,0,1-.28.11C274.44,245.71,273.28,245.22,272,244.55Z"/><path class="cls-10" d="M271,247.18h0a21.1,21.1,0,0,1-3.29-2.31.21.21,0,0,1,.29-.31,20.57,20.57,0,0,0,3.21,2.25.21.21,0,0,1,.08.29A.2.2,0,0,1,271,247.18Z"/><path class="cls-9" d="M258.11,240.52l-35.93-21.67a6.19,6.19,0,0,1-2.45-2.79l-.22-.51L218,169l-.11-.27a8.43,8.43,0,0,1,15.67-6.24l-.87,45.5,31,24.32a5,5,0,0,1-5.66,8.21Z"/><path class="cls-18" d="M235.88,146s-20.82,4.44-23.6,27.27c-1.75,14.36-1.15,40.84,6.3,47.57s33.34,18.59,33.34,18.59,1.72-8.18,8.53-13.25L236,205.92s3.62-31.56,3.62-41.77c0-5.37,1.53-12,.45-15.52C239.36,146.34,235.88,146,235.88,146Z"/><path class="cls-19" d="M258.42,224.4l-.08.09a19.86,19.86,0,0,0-9.11,13.56.23.23,0,0,1-.25.21.25.25,0,0,1-.21-.26,20.37,20.37,0,0,1,9.32-13.9.23.23,0,0,1,.32.07A.21.21,0,0,1,258.42,224.4Z"/><path class="cls-19" d="M255.53,222a.24.24,0,0,1-.09.08c-7.85,4.58-9.45,14.3-9.46,14.4a.23.23,0,0,1-.46-.07c0-.1,1.65-10,9.69-14.72a.23.23,0,0,1,.32.08A.24.24,0,0,1,255.53,222Z"/><path class="cls-16" d="M240.47,143.39,235.88,146l11.93,7.91,3-3.79,4.19,2.54,1.37-7.45-3-1.47s-.92,3.2-3.32,3.55S243.22,145.65,240.47,143.39Z"/><path class="cls-19" d="M260.45,226.38a.21.21,0,0,0,.18-.09.23.23,0,0,0,0-.33l-24.36-20.14c.32-1.94,3.93-24.13,3.59-40.83a.24.24,0,0,0-.24-.23.24.24,0,0,0-.24.24c.35,17.34-3.56,40.65-3.6,40.88a.23.23,0,0,0,.08.22l24.47,20.22A.22.22,0,0,0,260.45,226.38Z"/><path class="cls-8" d="M291.28,263.87a.24.24,0,0,0,.24-.19c0-.1,1.54-9.93-.68-15.87C288.44,241.38,277,233,270.69,229a.24.24,0,0,0-.33.08.23.23,0,0,0,.08.33c8.17,5.1,17.9,13.09,20,18.58,2.18,5.82.66,15.53.65,15.63a.24.24,0,0,0,.2.27Z"/><path class="cls-19" d="M228.72,227.82a.26.26,0,0,0,.21-.13.24.24,0,0,0-.1-.32c-.07,0-7-3.7-10.08-6.74a15.92,15.92,0,0,1-4-7.09.24.24,0,0,0-.29-.18.24.24,0,0,0-.18.28,16.32,16.32,0,0,0,4.11,7.33c3.13,3.09,10.13,6.78,10.2,6.82A.2.2,0,0,0,228.72,227.82Z"/><path class="cls-19" d="M279.77,212.55h0a.25.25,0,0,1-.23-.25,142.64,142.64,0,0,0-6.36-46.6.23.23,0,0,1,.14-.3.24.24,0,0,1,.3.15A142.81,142.81,0,0,1,280,212.32.23.23,0,0,1,279.77,212.55Z"/><path class="cls-9" d="M315.12,207.85c3.45.54,8.44,3.13,11.53,5.76.68.58,1.55,1.37.85,2.24s-1.59.4-2.28-.06a21.78,21.78,0,0,0-9.92-2.41C311.87,213.71,311.74,207.16,315.12,207.85Z"/><path class="cls-9" d="M321.1,213a27.85,27.85,0,0,0,9,6.08,1.15,1.15,0,0,1-.7,2.17,27.91,27.91,0,0,1-4.37-1.34,31.3,31.3,0,0,1-7-3.86C315.51,214,319.08,210.44,321.1,213Z"/><path class="cls-9" d="M321.43,215.07a24,24,0,0,0,5.33,5c1,1.08,4.19,1.4,3.5,3.25-.89,1.78-5.62-1.14-7-1.73a25.48,25.48,0,0,1-5.38-3.9C315.61,215.25,319.8,212.16,321.43,215.07Z"/><path class="cls-9" d="M320.42,216.53a18,18,0,0,0,7.56,7.34,1.14,1.14,0,0,1-.87,2.1,19.46,19.46,0,0,1-4.31-1.89,21.2,21.2,0,0,1-6.45-5.84C314.36,215.19,319.64,213,320.42,216.53Z"/><path class="cls-9" d="M315.88,215a21.65,21.65,0,0,0,6.56,8.8c.95,1.18,4.5,1.68,3.79,3.44-1.27,2.22-7.51-2.5-8.83-3.67a25.47,25.47,0,0,1-5.61-7.12C310.41,213.56,315.11,211.89,315.88,215Z"/><path class="cls-10" d="M325,219.27a13.46,13.46,0,0,1-2-1.68.21.21,0,0,1,0-.3.22.22,0,0,1,.3,0,20.62,20.62,0,0,0,4.83,3.35.2.2,0,0,1,.1.28.22.22,0,0,1-.28.1A26,26,0,0,1,325,219.27Z"/><path class="cls-10" d="M324.23,221.83a17.72,17.72,0,0,1-1.92-1.54.21.21,0,0,1,0-.3.22.22,0,0,1,.3,0,27.57,27.57,0,0,0,4.19,3,.2.2,0,0,1,.07.28.19.19,0,0,1-.28.08C326.5,223.28,325.41,222.65,324.23,221.83Z"/><path class="cls-10" d="M322.88,224.31h0a20.54,20.54,0,0,1-3-2.7.21.21,0,0,1,0-.3.2.2,0,0,1,.29,0,20.23,20.23,0,0,0,2.91,2.63.22.22,0,0,1-.25.35Z"/><path class="cls-19" d="M301.64,218.43a.23.23,0,0,1-.24-.23c-.13-11.57,6.58-16.58,6.65-16.62a.23.23,0,0,1,.33,0,.24.24,0,0,1-.05.33c-.07,0-6.58,4.92-6.46,16.23a.23.23,0,0,1-.23.24Z"/><path class="cls-19" d="M297.67,217.72a.24.24,0,0,1-.24-.22c-.41-12.27,7-17.9,7.05-18a.25.25,0,0,1,.33.05.23.23,0,0,1-.05.33c-.07.06-7.26,5.55-6.86,17.56a.23.23,0,0,1-.23.24Z"/><path class="cls-10" d="M317.92,217.9a.23.23,0,0,1-.23-.22,12.26,12.26,0,0,0-.67-2.9.25.25,0,0,1,0-.19.28.28,0,0,1,.16-.12c1.35-.31,3.6-.69,3.63-.7a.25.25,0,0,1,.27.2.24.24,0,0,1-.2.27s-2,.33-3.34.63a12.47,12.47,0,0,1,.61,2.78.25.25,0,0,1-.23.25Z"/></g><g id="_4" data-name="4"><path class="cls-25" d="M597.34,98.16a.37.37,0,0,1-.18,0l-17-10.92a62.84,62.84,0,0,1-13.13,1.36c-12.35,0-24-3.45-32.71-9.72s-13.6-14.67-13.6-23.59,4.83-17.3,13.6-23.59,20.36-9.73,32.71-9.73,24,3.46,32.7,9.73,13.6,14.67,13.6,23.59a26.17,26.17,0,0,1-5.22,15.39,39.69,39.69,0,0,1-13.67,11.46l3.2,15.68a.33.33,0,0,1-.14.33A.3.3,0,0,1,597.34,98.16Zm-17.1-11.64a.37.37,0,0,1,.18,0l16.44,10.57L593.77,82a.32.32,0,0,1,.17-.35c11.75-6.14,18.76-16,18.76-26.39,0-18-20.48-32.66-45.65-32.66s-45.66,14.65-45.66,32.66S541.87,87.9,567.05,87.9a62.68,62.68,0,0,0,13.12-1.37Z"/><path class="cls-23" d="M609.77,53.61c0-18.22-20.59-33-46-33s-46,14.77-46,33,20.59,33,46,33A62.76,62.76,0,0,0,577,85.21l17.09,11-3.24-15.91C602.3,74.29,609.77,64.57,609.77,53.61Z"/></g><g id="_3" data-name="3"><path class="cls-4" d="M258.57,95.17a.33.33,0,0,1-.14-.34l3.2-15.67A39.8,39.8,0,0,1,248,67.7a26.23,26.23,0,0,1-5.23-15.4c0-8.92,4.83-17.3,13.61-23.59S276.69,19,289,19s24,3.45,32.7,9.72,13.61,14.67,13.61,23.59-4.83,17.3-13.61,23.59-20.35,9.73-32.7,9.73a63.52,63.52,0,0,1-13.13-1.36l-17,10.91a.32.32,0,0,1-.18.06A.3.3,0,0,1,258.57,95.17Zm17.34-11.58A62.85,62.85,0,0,0,289,85c25.17,0,45.66-14.65,45.66-32.66S314.21,19.64,289,19.64,243.39,34.29,243.39,52.3c0,10.39,7,20.25,18.76,26.39a.34.34,0,0,1,.17.36l-3.09,15.16,16.44-10.58a.34.34,0,0,1,.17,0Z"/><path class="cls-2" d="M246.32,50.67c0-18.22,20.59-33,46-33s46,14.77,46,33-20.58,33-46,33a62.74,62.74,0,0,1-13.19-1.38l-17.1,11,3.25-15.92C253.78,71.35,246.32,61.64,246.32,50.67Z"/></g><g id="_2" data-name="2"><path class="cls-8" d="M391.62,114.87a.27.27,0,0,1-.11-.28l2.65-13a33,33,0,0,1-11.34-9.51,21.74,21.74,0,0,1-4.34-12.78c0-7.4,4-14.35,11.29-19.58s16.89-8.07,27.14-8.07,19.89,2.87,27.15,8.07,11.29,12.18,11.29,19.58-4,14.36-11.29,19.58-16.9,8.07-27.15,8.07a52.57,52.57,0,0,1-10.9-1.13l-14.09,9.06a.25.25,0,0,1-.15,0A.3.3,0,0,1,391.62,114.87Zm14.4-9.61a51.74,51.74,0,0,0,10.89,1.14c20.9,0,37.89-12.16,37.89-27.11s-17-27.11-37.89-27.11S379,64.34,379,79.29c0,8.62,5.82,16.81,15.58,21.91a.28.28,0,0,1,.14.29l-2.57,12.58,13.64-8.77a.3.3,0,0,1,.15,0Z"/><path class="cls-11" d="M381.46,77.94c0-15.12,17.08-27.38,38.16-27.38s38.16,12.26,38.16,27.38-17.08,27.38-38.16,27.38a51.84,51.84,0,0,1-10.95-1.15l-14.19,9.12,2.7-13.21C387.65,95.1,381.46,87,381.46,77.94Z"/></g><path id="_1" data-name="1" class="cls-16" d="M674.21,338.79H106.45c-.18,0-.33-.21-.33-.47s.15-.47.33-.47H674.21c.19,0,.34.21.34.47S674.4,338.79,674.21,338.79Z"/></svg>